<svg width="136" height="548" viewBox="0 0 136 548" fill="none" xmlns="http://www.w3.org/2000/svg">
<g clip-path="url(#clip0_7_5)">
<path d="M67.9041 -6.3913C60.7184 1.29288 24.7903 24.3454 24.7903 39.7138C24.7903 55.0821 67.9041 70.4505 67.9041 85.8189C67.9041 101.187 24.7903 116.556 24.7903 131.924C24.7903 147.292 67.9041 162.661 67.9041 178.029C67.9041 193.397 24.7903 208.766 24.7903 224.134C24.7903 239.502 67.9041 254.871 67.9041 270.239C67.9041 285.608 24.7903 300.976 24.7903 316.344C24.7903 331.713 67.9041 347.081 67.9041 362.449C67.9041 377.818 24.7903 393.186 24.7903 408.554C24.7903 423.923 67.9041 439.291 67.9041 454.659C67.9041 470.028 24.7903 485.396 24.7903 500.765C24.7903 516.133 60.7184 539.185 67.9041 546.87" stroke="#E482B1" stroke-width="3" stroke-linecap="round" stroke-linejoin="round"/>
</g>
<defs>
<clipPath id="clip0_7_5">
<rect width="543.474" height="118.564" fill="white" transform="matrix(0.0306835 0.999529 -0.999513 0.031204 118.506 0.130432)"/>
</clipPath>
</defs>
</svg>
