<svg width="22" height="18" viewBox="0 0 22 18" fill="none" xmlns="http://www.w3.org/2000/svg">
<path d="M6.90204 2.295C5.99237 3.69 4.21852 5.49 2.49015 6.705C-0.375311 8.775 -0.420794 8.775 0.625325 9.45C2.6266 10.71 6.76559 14.85 7.62977 16.425C8.08461 17.28 8.58493 18 8.72138 18C8.85783 18 9.35815 17.28 9.81298 16.425C10.6772 14.85 14.8616 10.71 16.9084 9.405L18 8.685L16.9084 8.1C14.6797 6.93 11.9507 4.41 10.5407 2.205C9.72201 0.989999 8.94879 -7.15256e-07 8.76686 -7.15256e-07C8.58493 -7.15256e-07 7.72074 1.035 6.90204 2.295Z" fill="#E482B1"/>
<path d="M10.902 2.295C9.99237 3.69 8.21852 5.49 6.49015 6.705C3.62469 8.775 3.57921 8.775 4.62533 9.45C6.6266 10.71 10.7656 14.85 11.6298 16.425C12.0846 17.28 12.5849 18 12.7214 18C12.8578 18 13.3581 17.28 13.813 16.425C14.6772 14.85 18.8616 10.71 20.9084 9.405L22 8.685L20.9084 8.1C18.6797 6.93 15.9507 4.41 14.5407 2.205C13.722 0.989999 12.9488 -7.15256e-07 12.7669 -7.15256e-07C12.5849 -7.15256e-07 11.7207 1.035 10.902 2.295Z" fill="#0E9D62"/>
</svg>
