<svg width="249" height="107" viewBox="0 0 249 107" fill="none" xmlns="http://www.w3.org/2000/svg">
<path d="M190.523 71V1.92847H212.626C219.993 1.92847 226.341 3.40857 231.67 6.36878C237.064 9.32899 241.241 13.4075 244.201 18.6043C247.162 23.8011 248.642 29.7544 248.642 36.4642C248.642 43.174 247.162 49.1273 244.201 54.3242C241.241 59.521 237.064 63.5995 231.67 66.5597C226.341 69.5199 219.993 71 212.626 71H190.523ZM199.996 62.6127H212.725C217.856 62.6127 222.395 61.5602 226.341 59.4552C230.354 57.3501 233.512 54.357 235.814 50.4759C238.117 46.5289 239.268 41.8584 239.268 36.4642C239.268 31.0043 238.117 26.3337 235.814 22.4526C233.512 18.5714 230.354 15.5783 226.341 13.4733C222.395 11.3682 217.856 10.3157 212.725 10.3157H199.996V62.6127Z" fill="black"/>
<path d="M115.672 71L139.156 8.5396C140.209 5.84252 141.656 3.86905 143.498 2.61918C145.34 1.36932 147.478 0.744385 149.912 0.744385C152.346 0.744385 154.484 1.36932 156.326 2.61918C158.233 3.80327 159.681 5.74385 160.667 8.44093L184.25 71H173.89L167.87 54.3242H131.756L125.638 71H115.672ZM134.716 45.9369H165.009L152.675 11.6972C152.346 10.842 151.984 10.1842 151.589 9.72368C151.195 9.2632 150.635 9.03297 149.912 9.03297C149.254 9.03297 148.728 9.2632 148.333 9.72368C147.938 10.1842 147.609 10.842 147.346 11.6972L134.716 45.9369Z" fill="black"/>
<path d="M0.499207 71V1.92847H30.792C35.1336 1.92847 39.0806 2.88231 42.6328 4.79C46.1851 6.63191 49.0137 9.26321 51.1188 12.6839C53.2238 16.0388 54.2763 19.9857 54.2763 24.5247C54.2763 29.1295 53.0922 33.208 50.7241 36.7602C48.4217 40.2467 45.297 42.8451 41.3501 44.5555L48.7506 59.5538C49.2769 60.6064 49.836 61.3958 50.428 61.922C51.0859 62.3825 52.0068 62.6127 53.1909 62.6127H58.1246V71H51.7108C49.1453 71 46.8758 70.3422 44.9023 69.0265C42.9946 67.7109 41.4159 65.9347 40.166 63.6981L31.8774 46.825C31.2196 46.8907 30.496 46.9565 29.7066 47.0223C28.983 47.0223 28.2265 47.0223 27.4371 47.0223H9.97187V71H0.499207ZM9.97187 38.635H29.5092C32.3379 38.635 34.9034 38.0759 37.2058 36.9576C39.5739 35.8393 41.4159 34.2276 42.7315 32.1226C44.1129 30.0176 44.8036 27.4849 44.8036 24.5247C44.8036 21.4987 44.1129 18.9332 42.7315 16.8282C41.3501 14.7231 39.5082 13.1115 37.2058 11.9932C34.9034 10.8749 32.3708 10.3157 29.6079 10.3157H9.97187V38.635Z" fill="black"/>
<path d="M156.635 106.026C155.696 106.582 154.701 106.86 153.649 106.86C152.605 106.86 151.685 106.706 150.889 106.398C150.1 106.082 149.424 105.647 148.86 105.091C147.689 103.926 147.103 102.413 147.103 100.55C147.103 98.822 147.681 97.3834 148.838 96.2341C150.07 95.0171 151.677 94.4087 153.661 94.4087C154.712 94.4087 155.704 94.6378 156.635 95.096V90.7015H161.278V106.646H156.635V106.026ZM153.435 95.2312C153.202 95.2312 152.981 95.2462 152.77 95.2763V105.958C153.041 106.003 153.334 106.026 153.649 106.026C154.693 106.026 155.689 105.695 156.635 105.034V96.0989C155.621 95.5204 154.555 95.2312 153.435 95.2312Z" fill="black"/>
<path d="M136.334 95.8397C136.146 95.7195 135.943 95.6594 135.725 95.6594C135.507 95.6594 135.282 95.712 135.049 95.8172C134.816 95.9148 134.572 96.0538 134.317 96.2341C133.783 96.6172 133.291 97.128 132.84 97.7665V106.646H127.995V94.6115H132.84V96.5383C134.125 95.1185 135.579 94.4087 137.201 94.4087C139.853 94.4087 141.179 95.6932 141.179 98.2623V106.646H136.334V95.8397Z" fill="black"/>
<path d="M116.223 94.6115H121.068V106.646H116.223V94.6115Z" fill="black"/>
<path d="M101.048 97.7215C101.063 97.9017 101.071 98.082 101.071 98.2623V106.646H96.2369V95.7158C96.1543 95.6782 96.0566 95.6594 95.944 95.6594H95.5834C94.9974 95.6594 94.3139 96.0613 93.5326 96.8651C93.2922 97.113 93.0631 97.3872 92.8453 97.6877V106.646H88V94.6115H92.8453V96.4256C94.1148 95.081 95.5346 94.4087 97.1046 94.4087C99.1328 94.4087 100.384 95.1599 100.857 96.6623C101.503 95.9186 102.213 95.3589 102.986 94.9833C103.768 94.6002 104.553 94.4087 105.341 94.4087C106.686 94.4087 107.681 94.7279 108.328 95.3664C108.974 96.005 109.297 96.9703 109.297 98.2623V106.646H104.463V95.7045C104.395 95.6744 104.226 95.6594 103.956 95.6594C103.685 95.6594 103.433 95.712 103.201 95.8172C102.975 95.9148 102.742 96.0538 102.502 96.2341C101.976 96.6172 101.492 97.113 101.048 97.7215Z" fill="black"/>
<path d="M116.333 87.47C115.63 86.54 114.26 85.34 112.924 84.53C110.71 83.15 110.675 83.15 111.483 82.7C113.03 81.86 116.228 79.1 116.896 78.05C117.247 77.48 117.634 77 117.739 77C117.845 77 118.231 77.48 118.583 78.05C119.251 79.1 122.484 81.86 124.066 82.73L124.909 83.21L124.066 83.6C122.343 84.38 120.235 86.06 119.145 87.53C118.512 88.34 117.915 89 117.774 89C117.634 89 116.966 88.31 116.333 87.47Z" fill="#E482B1"/>
<path d="M119.424 87.47C118.721 86.54 117.351 85.34 116.015 84.53C113.801 83.15 113.766 83.15 114.574 82.7C116.121 81.86 119.319 79.1 119.987 78.05C120.338 77.48 120.725 77 120.83 77C120.936 77 121.322 77.48 121.674 78.05C122.341 79.1 125.575 81.86 127.156 82.73L128 83.21L127.156 83.6C125.434 84.38 123.326 86.06 122.236 87.53C121.603 88.34 121.006 89 120.865 89C120.725 89 120.057 88.31 119.424 87.47Z" fill="#0E9D62"/>
<path d="M74 44.0364H108L109.5 43H74V44.0364Z" fill="#0E9D62"/>
<path d="M74 47.1458H106L107 46.1093H74V47.1458Z" fill="#0E9D62"/>
<path d="M105.5 50.2551H74V49.2186H106L105.5 50.2551Z" fill="#0E9D62"/>
<path d="M74 53.3644H106L105.5 52.328H74V53.3644Z" fill="#0E9D62"/>
<path d="M107.188 56.4737H74V55.4373H106.5L107.188 56.4737Z" fill="#0E9D62"/>
<path d="M74.5 59.583H109.5L109 58.5466H74.5V59.583Z" fill="#0E9D62"/>
<path d="M74 13.0364H108L109.5 12H74V13.0364Z" fill="#E482B1"/>
<path d="M74 16.1458H106L107 15.1093H74V16.1458Z" fill="#E482B1"/>
<path d="M105.5 19.2551H74V18.2186H106L105.5 19.2551Z" fill="#E482B1"/>
<path d="M74 22.3644H106L105.5 21.328H74V22.3644Z" fill="#E482B1"/>
<path d="M107.188 25.4737H74V24.4373H106.5L107.188 25.4737Z" fill="#E482B1"/>
<path d="M74.5 28.583H109.5L109 27.5466H74.5V28.583Z" fill="#E482B1"/>
<path d="M84.2399 71C80.4636 71 77.1104 70.0939 74.1805 68.2816C71.3156 66.4022 69.0694 63.9522 67.4416 60.9317C65.8139 57.9112 65 54.6223 65 51.0648C65 47.843 65.7162 44.8225 67.1486 42.0034C68.6461 39.1842 70.7948 36.9692 73.5945 35.3583C70.8599 33.546 68.7764 31.2974 67.3439 28.6126C65.9115 25.9277 65.1953 23.1086 65.1953 20.1552C65.1953 16.5306 66.0092 13.2417 67.6369 10.2883C69.3298 7.33493 71.6086 4.98567 74.4735 3.2405C77.3383 1.42821 80.4961 0.522064 83.9469 0.522064H111V9.0801H85.0212C83.0028 9.0801 81.2123 9.58352 79.6497 10.5903C78.087 11.5972 76.85 12.9396 75.9384 14.6177C75.0269 16.2286 74.5711 18.0744 74.5711 20.1552C74.5711 22.1017 75.0269 23.8805 75.9384 25.4914C76.9151 27.1023 78.2173 28.4112 79.845 29.418C81.4728 30.3577 83.2633 30.8276 85.2166 30.8276H111V39.3856H85.9002C83.4912 39.3856 81.4076 39.9561 79.6497 41.0972C77.9568 42.1712 76.6221 43.6143 75.6454 45.4266C74.7339 47.1717 74.2781 49.0512 74.2781 51.0648C74.2781 53.0785 74.7339 54.9579 75.6454 56.703C76.557 58.4482 77.8592 59.8578 79.552 60.9317C81.2449 61.9386 83.2307 62.442 85.5096 62.442H111V71H84.2399Z" fill="black"/>
</svg>
