<svg width="151" height="88" viewBox="0 0 151 88" fill="none" xmlns="http://www.w3.org/2000/svg">
<path d="M129.902 45.295C128.992 46.69 127.219 48.49 125.49 49.705C122.625 51.775 122.579 51.775 123.625 52.45C125.627 53.71 129.766 57.85 130.63 59.425C131.085 60.28 131.585 61 131.721 61C131.858 61 132.358 60.28 132.813 59.425C133.677 57.85 137.862 53.71 139.908 52.405L141 51.685L139.908 51.1C137.68 49.93 134.951 47.41 133.541 45.205C132.722 43.99 131.949 43 131.767 43C131.585 43 130.721 44.035 129.902 45.295Z" fill="black"/>
<path d="M139.978 0.366615C126.689 1.60716 110.903 7.60313 101.012 15.1498C93.918 20.6288 84.726 30.9667 80.23 38.5134C74.8347 47.7141 74.8347 47.6107 74.3351 46.06C73.0362 42.3384 64.6436 30.4498 59.548 24.9707C45.4603 9.98083 24.6785 0.263237 6.89398 0.263237H0L0.299738 7.18961L0.599477 14.2194L9.09206 14.943C34.37 16.9072 56.151 34.8951 64.4437 60.4297C65.9424 64.7716 67.3412 71.9047 67.7409 76.2466L68.3403 84H75.1344H82.0284V79.8649C82.0284 67.6662 87.9232 51.0222 96.216 39.8573C106.607 25.7978 123.992 16.1836 141.477 14.8396H149.769V14.2194C149.969 10.6011 150.169 0.57338 149.769 0.263237C149.37 -0.150276 144.674 -0.0468979 139.978 0.366615Z" fill="#0E9D62"/>
<path d="M139.921 20.6656C111.953 24.0857 89.4016 47.5194 86.7559 76.0199L86 84H94.8189H103.638L104.394 77.0332C106.535 56.3862 123.543 39.6659 143.701 38.1459H150C150 33.3325 150 20 150 20C151.26 20 144.079 20.1589 139.921 20.6656Z" fill="#E482B1"/>
<path d="M139.921 20.6656C111.953 24.0857 89.4016 47.5194 86.7559 76.0199L86 84H94.8189H103.638L104.394 77.0332C106.535 56.3862 123.543 39.6659 143.701 38.1459H150C150 33.3325 150 20 150 20C151.26 20 144.079 20.1589 139.921 20.6656Z" fill="#E482B1"/>
<path d="M114.84 62.696C115.768 62.632 116.588 62.6 117.3 62.6C119.276 62.6 120.264 63.26 120.264 64.58C120.264 65.14 120.128 65.64 119.856 66.08C119.584 66.52 119.116 66.812 118.452 66.956L120.852 71H119.736L117.384 67.028H115.836V71H114.84V62.696ZM117.3 62.72C116.836 62.72 116.348 62.748 115.836 62.804V66.908H117.612C118.74 66.86 119.304 66.092 119.304 64.604C119.304 63.996 119.136 63.532 118.8 63.212C118.464 62.884 117.964 62.72 117.3 62.72ZM129.103 62.6V62.72H125.323V66.32H128.827V66.44H125.323V70.88H129.367V71H124.327V62.6H129.103ZM132.576 71H132.432L136.02 62.6L136.152 62.54L139.176 71H138.156L137.22 68.36H133.716L132.576 71ZM135.648 63.896L133.764 68.24H137.184L135.648 63.896ZM143.499 62.612C143.851 62.596 144.195 62.588 144.531 62.588C144.875 62.588 145.235 62.624 145.611 62.696C145.995 62.768 146.371 62.904 146.739 63.104C147.115 63.296 147.431 63.548 147.687 63.86C147.951 64.164 148.163 64.568 148.323 65.072C148.483 65.576 148.563 66.188 148.563 66.908C148.563 67.628 148.443 68.276 148.203 68.852C147.971 69.42 147.651 69.856 147.243 70.16C146.451 70.752 145.495 71.048 144.375 71.048C143.983 71.048 143.571 71.032 143.139 71H142.539V62.612H143.499ZM143.535 70.904C143.703 70.92 143.915 70.928 144.171 70.928C144.427 70.928 144.619 70.924 144.747 70.916C144.875 70.908 145.051 70.876 145.275 70.82C145.499 70.756 145.707 70.672 145.899 70.568C146.091 70.464 146.291 70.312 146.499 70.112C146.715 69.904 146.899 69.66 147.051 69.38C147.395 68.724 147.567 67.868 147.567 66.812C147.567 66.06 147.475 65.412 147.291 64.868C147.107 64.316 146.895 63.908 146.655 63.644C146.423 63.38 146.139 63.172 145.803 63.02C145.467 62.86 145.199 62.768 144.999 62.744C144.799 62.72 144.567 62.708 144.303 62.708C144.039 62.708 143.783 62.72 143.535 62.744V70.904Z" fill="black"/>
<path d="M120.54 82.144C120.108 82.144 119.72 82.044 119.376 81.844C119.032 81.644 118.76 81.372 118.56 81.028C118.368 80.676 118.272 80.268 118.272 79.804V75.628C118.272 75.412 118.22 75.216 118.116 75.04C118.012 74.864 117.872 74.724 117.696 74.62C117.52 74.516 117.328 74.464 117.12 74.464C116.912 74.464 116.72 74.516 116.544 74.62C116.376 74.724 116.24 74.864 116.136 75.04C116.04 75.216 115.992 75.412 115.992 75.628V82H114.84V75.784C114.84 75.344 114.936 74.948 115.128 74.596C115.32 74.244 115.588 73.968 115.932 73.768C116.276 73.56 116.672 73.456 117.12 73.456C117.576 73.456 117.976 73.56 118.32 73.768C118.664 73.968 118.932 74.244 119.124 74.596C119.316 74.948 119.412 75.344 119.412 75.784V79.96C119.412 80.184 119.464 80.384 119.568 80.56C119.672 80.728 119.808 80.864 119.976 80.968C120.152 81.072 120.34 81.124 120.54 81.124C120.74 81.124 120.924 81.072 121.092 80.968C121.26 80.864 121.392 80.728 121.488 80.56C121.592 80.384 121.644 80.184 121.644 79.96V75.784C121.644 75.344 121.74 74.948 121.932 74.596C122.132 74.244 122.404 73.968 122.748 73.768C123.092 73.56 123.492 73.456 123.948 73.456C124.396 73.456 124.792 73.56 125.136 73.768C125.48 73.968 125.748 74.244 125.94 74.596C126.132 74.948 126.228 75.344 126.228 75.784V82H125.076V75.628C125.076 75.412 125.024 75.216 124.92 75.04C124.824 74.864 124.688 74.724 124.512 74.62C124.344 74.516 124.156 74.464 123.948 74.464C123.732 74.464 123.536 74.516 123.36 74.62C123.192 74.724 123.056 74.864 122.952 75.04C122.848 75.216 122.796 75.412 122.796 75.628V79.804C122.796 80.268 122.696 80.676 122.496 81.028C122.304 81.372 122.036 81.644 121.692 81.844C121.356 82.044 120.972 82.144 120.54 82.144ZM127.33 82V80.98H128.95V74.62H127.33V73.6H131.71V74.62H130.102V80.98H131.71V82H127.33ZM138.511 82.144C138.063 82.144 137.667 82.044 137.323 81.844C136.987 81.636 136.723 81.356 136.531 81.004C136.339 80.652 136.243 80.256 136.243 79.816V75.628C136.243 75.412 136.191 75.216 136.087 75.04C135.983 74.864 135.843 74.724 135.667 74.62C135.491 74.516 135.299 74.464 135.091 74.464C134.883 74.464 134.691 74.516 134.515 74.62C134.347 74.724 134.211 74.864 134.107 75.04C134.011 75.216 133.963 75.412 133.963 75.628V82H132.811V75.784C132.811 75.344 132.907 74.948 133.099 74.596C133.291 74.244 133.559 73.968 133.903 73.768C134.247 73.56 134.643 73.456 135.091 73.456C135.547 73.456 135.947 73.56 136.291 73.768C136.635 73.968 136.903 74.244 137.095 74.596C137.287 74.948 137.383 75.344 137.383 75.784V79.972C137.383 80.188 137.435 80.384 137.539 80.56C137.643 80.736 137.779 80.876 137.947 80.98C138.123 81.084 138.311 81.136 138.511 81.136C138.711 81.136 138.895 81.084 139.063 80.98C139.231 80.876 139.363 80.736 139.459 80.56C139.563 80.384 139.615 80.188 139.615 79.972V73.6H140.767V79.816C140.767 80.256 140.671 80.652 140.479 81.004C140.287 81.356 140.023 81.636 139.687 81.844C139.351 82.044 138.959 82.144 138.511 82.144ZM142.156 82V73.6H144.844C145.74 73.6 146.512 73.78 147.16 74.14C147.816 74.5 148.324 74.996 148.684 75.628C149.044 76.26 149.224 76.984 149.224 77.8C149.224 78.616 149.044 79.34 148.684 79.972C148.324 80.604 147.816 81.1 147.16 81.46C146.512 81.82 145.74 82 144.844 82H142.156ZM143.308 80.98H144.856C145.48 80.98 146.032 80.852 146.512 80.596C147 80.34 147.384 79.976 147.664 79.504C147.944 79.024 148.084 78.456 148.084 77.8C148.084 77.136 147.944 76.568 147.664 76.096C147.384 75.624 147 75.26 146.512 75.004C146.032 74.748 145.48 74.62 144.856 74.62H143.308V80.98Z" fill="black"/>
</svg>
