<svg width="36" height="45" viewBox="0 0 36 45" fill="none" xmlns="http://www.w3.org/2000/svg">
<path d="M15.902 2.295C14.9924 3.69 13.2185 5.49 11.4901 6.705C8.62469 8.775 8.57921 8.775 9.62533 9.45C11.6266 10.71 15.7656 14.85 16.6298 16.425C17.0846 17.28 17.5849 18 17.7214 18C17.8578 18 18.3581 17.28 18.813 16.425C19.6772 14.85 23.8616 10.71 25.9084 9.405L27 8.685L25.9084 8.1C23.6797 6.93 20.9507 4.41 19.5407 2.205C18.722 0.989999 17.9488 -7.15256e-07 17.7669 -7.15256e-07C17.5849 -7.15256e-07 16.7207 1.035 15.902 2.295Z" fill="#E482B1"/>
<path d="M19.902 2.295C18.9924 3.69 17.2185 5.49 15.4901 6.705C12.6247 8.775 12.5792 8.775 13.6253 9.45C15.6266 10.71 19.7656 14.85 20.6298 16.425C21.0846 17.28 21.5849 18 21.7214 18C21.8578 18 22.3581 17.28 22.813 16.425C23.6772 14.85 27.8616 10.71 29.9084 9.405L31 8.685L29.9084 8.1C27.6797 6.93 24.9507 4.41 23.5407 2.205C22.722 0.989999 21.9488 -7.15256e-07 21.7669 -7.15256e-07C21.5849 -7.15256e-07 20.7207 1.035 19.902 2.295Z" fill="#0E9D62"/>
<path d="M0.84 19.696C1.768 19.632 2.588 19.6 3.3 19.6C5.276 19.6 6.264 20.26 6.264 21.58C6.264 22.14 6.128 22.64 5.856 23.08C5.584 23.52 5.116 23.812 4.452 23.956L6.852 28H5.736L3.384 24.028H1.836V28H0.84V19.696ZM3.3 19.72C2.836 19.72 2.348 19.748 1.836 19.804V23.908H3.612C4.74 23.86 5.304 23.092 5.304 21.604C5.304 20.996 5.136 20.532 4.8 20.212C4.464 19.884 3.964 19.72 3.3 19.72ZM15.103 19.6V19.72H11.323V23.32H14.827V23.44H11.323V27.88H15.367V28H10.327V19.6H15.103ZM18.5757 28H18.4317L22.0197 19.6L22.1517 19.54L25.1757 28H24.1557L23.2197 25.36H19.7157L18.5757 28ZM21.6477 20.896L19.7637 25.24H23.1837L21.6477 20.896ZM29.4994 19.612C29.8514 19.596 30.1954 19.588 30.5314 19.588C30.8754 19.588 31.2354 19.624 31.6114 19.696C31.9954 19.768 32.3714 19.904 32.7394 20.104C33.1154 20.296 33.4314 20.548 33.6874 20.86C33.9514 21.164 34.1634 21.568 34.3234 22.072C34.4834 22.576 34.5634 23.188 34.5634 23.908C34.5634 24.628 34.4434 25.276 34.2034 25.852C33.9714 26.42 33.6514 26.856 33.2434 27.16C32.4514 27.752 31.4954 28.048 30.3754 28.048C29.9834 28.048 29.5714 28.032 29.1394 28H28.5394V19.612H29.4994ZM29.5354 27.904C29.7034 27.92 29.9154 27.928 30.1714 27.928C30.4274 27.928 30.6194 27.924 30.7474 27.916C30.8754 27.908 31.0514 27.876 31.2754 27.82C31.4994 27.756 31.7074 27.672 31.8994 27.568C32.0914 27.464 32.2914 27.312 32.4994 27.112C32.7154 26.904 32.8994 26.66 33.0514 26.38C33.3954 25.724 33.5674 24.868 33.5674 23.812C33.5674 23.06 33.4754 22.412 33.2914 21.868C33.1074 21.316 32.8954 20.908 32.6554 20.644C32.4234 20.38 32.1394 20.172 31.8034 20.02C31.4674 19.86 31.1994 19.768 30.9994 19.744C30.7994 19.72 30.5674 19.708 30.3034 19.708C30.0394 19.708 29.7834 19.72 29.5354 19.744V27.904Z" fill="black"/>
<path d="M6.54 39.144C6.108 39.144 5.72 39.044 5.376 38.844C5.032 38.644 4.76 38.372 4.56 38.028C4.368 37.676 4.272 37.268 4.272 36.804V32.628C4.272 32.412 4.22 32.216 4.116 32.04C4.012 31.864 3.872 31.724 3.696 31.62C3.52 31.516 3.328 31.464 3.12 31.464C2.912 31.464 2.72 31.516 2.544 31.62C2.376 31.724 2.24 31.864 2.136 32.04C2.04 32.216 1.992 32.412 1.992 32.628V39H0.84V32.784C0.84 32.344 0.936 31.948 1.128 31.596C1.32 31.244 1.588 30.968 1.932 30.768C2.276 30.56 2.672 30.456 3.12 30.456C3.576 30.456 3.976 30.56 4.32 30.768C4.664 30.968 4.932 31.244 5.124 31.596C5.316 31.948 5.412 32.344 5.412 32.784V36.96C5.412 37.184 5.464 37.384 5.568 37.56C5.672 37.728 5.808 37.864 5.976 37.968C6.152 38.072 6.34 38.124 6.54 38.124C6.74 38.124 6.924 38.072 7.092 37.968C7.26 37.864 7.392 37.728 7.488 37.56C7.592 37.384 7.644 37.184 7.644 36.96V32.784C7.644 32.344 7.74 31.948 7.932 31.596C8.132 31.244 8.404 30.968 8.748 30.768C9.092 30.56 9.492 30.456 9.948 30.456C10.396 30.456 10.792 30.56 11.136 30.768C11.48 30.968 11.748 31.244 11.94 31.596C12.132 31.948 12.228 32.344 12.228 32.784V39H11.076V32.628C11.076 32.412 11.024 32.216 10.92 32.04C10.824 31.864 10.688 31.724 10.512 31.62C10.344 31.516 10.156 31.464 9.948 31.464C9.732 31.464 9.536 31.516 9.36 31.62C9.192 31.724 9.056 31.864 8.952 32.04C8.848 32.216 8.796 32.412 8.796 32.628V36.804C8.796 37.268 8.696 37.676 8.496 38.028C8.304 38.372 8.036 38.644 7.692 38.844C7.356 39.044 6.972 39.144 6.54 39.144ZM13.3304 39V37.98H14.9504V31.62H13.3304V30.6H17.7104V31.62H16.1024V37.98H17.7104V39H13.3304ZM24.5114 39.144C24.0634 39.144 23.6674 39.044 23.3234 38.844C22.9874 38.636 22.7234 38.356 22.5314 38.004C22.3394 37.652 22.2434 37.256 22.2434 36.816V32.628C22.2434 32.412 22.1914 32.216 22.0874 32.04C21.9834 31.864 21.8434 31.724 21.6674 31.62C21.4914 31.516 21.2994 31.464 21.0914 31.464C20.8834 31.464 20.6914 31.516 20.5154 31.62C20.3474 31.724 20.2114 31.864 20.1074 32.04C20.0114 32.216 19.9634 32.412 19.9634 32.628V39H18.8114V32.784C18.8114 32.344 18.9074 31.948 19.0994 31.596C19.2914 31.244 19.5594 30.968 19.9034 30.768C20.2474 30.56 20.6434 30.456 21.0914 30.456C21.5474 30.456 21.9474 30.56 22.2914 30.768C22.6354 30.968 22.9034 31.244 23.0954 31.596C23.2874 31.948 23.3834 32.344 23.3834 32.784V36.972C23.3834 37.188 23.4354 37.384 23.5394 37.56C23.6434 37.736 23.7794 37.876 23.9474 37.98C24.1234 38.084 24.3114 38.136 24.5114 38.136C24.7114 38.136 24.8954 38.084 25.0634 37.98C25.2314 37.876 25.3634 37.736 25.4594 37.56C25.5634 37.384 25.6154 37.188 25.6154 36.972V30.6H26.7674V36.816C26.7674 37.256 26.6714 37.652 26.4794 38.004C26.2874 38.356 26.0234 38.636 25.6874 38.844C25.3514 39.044 24.9594 39.144 24.5114 39.144ZM28.1562 39V30.6H30.8442C31.7402 30.6 32.5122 30.78 33.1602 31.14C33.8162 31.5 34.3242 31.996 34.6842 32.628C35.0442 33.26 35.2242 33.984 35.2242 34.8C35.2242 35.616 35.0442 36.34 34.6842 36.972C34.3242 37.604 33.8162 38.1 33.1602 38.46C32.5122 38.82 31.7402 39 30.8442 39H28.1562ZM29.3082 37.98H30.8562C31.4802 37.98 32.0322 37.852 32.5122 37.596C33.0002 37.34 33.3842 36.976 33.6642 36.504C33.9442 36.024 34.0842 35.456 34.0842 34.8C34.0842 34.136 33.9442 33.568 33.6642 33.096C33.3842 32.624 33.0002 32.26 32.5122 32.004C32.0322 31.748 31.4802 31.62 30.8562 31.62H29.3082V37.98Z" fill="black"/>
</svg>
