<svg xmlns="http://www.w3.org/2000/svg" xmlns:xlink="http://www.w3.org/1999/xlink" width="500" zoomAndPan="magnify" viewBox="0 0 375 374.999991" height="500" preserveAspectRatio="xMidYMid meet" version="1.0"><defs><g/><clipPath id="b1e84efd48"><path d="M 165.933594 145.652344 L 200 145.652344 L 200 178.652344 L 165.933594 178.652344 Z M 165.933594 145.652344 " clip-rule="nonzero"/></clipPath><clipPath id="dedb667f19"><path d="M 173 145.652344 L 206.433594 145.652344 L 206.433594 178.652344 L 173 178.652344 Z M 173 145.652344 " clip-rule="nonzero"/></clipPath></defs><rect x="-37.5" width="450" fill="#ffffff" y="-37.499999" height="449.999989" fill-opacity="1"/><rect x="-37.5" width="450" fill="#ffffff" y="-37.499999" height="449.999989" fill-opacity="1"/><g fill="#000000" fill-opacity="1"><g transform="translate(155.042279, 159.470303)"><g><path d="M 0.453125 -1.15625 L -10.28125 -5.359375 L -8.4375 -10.078125 C -8.175781 -10.742188 -7.789062 -11.296875 -7.28125 -11.734375 C -6.769531 -12.179688 -6.1875 -12.460938 -5.53125 -12.578125 C -4.875 -12.703125 -4.191406 -12.628906 -3.484375 -12.359375 C -2.773438 -12.078125 -2.21875 -11.644531 -1.8125 -11.0625 C -1.414062 -10.488281 -1.203125 -9.835938 -1.171875 -9.109375 L 1.609375 -9.359375 C 1.804688 -9.367188 1.957031 -9.410156 2.0625 -9.484375 C 2.175781 -9.554688 2.269531 -9.6875 2.34375 -9.875 L 2.65625 -10.640625 L 3.96875 -10.125 L 3.578125 -9.125 C 3.421875 -8.726562 3.179688 -8.414062 2.859375 -8.1875 C 2.535156 -7.96875 2.160156 -7.828125 1.734375 -7.765625 L -1.390625 -7.5 C -1.410156 -7.40625 -1.441406 -7.296875 -1.484375 -7.171875 C -1.535156 -7.046875 -1.582031 -6.925781 -1.625 -6.8125 L -2.6875 -4.09375 L 1.03125 -2.640625 Z M -4 -4.609375 L -2.8125 -7.640625 C -2.632812 -8.078125 -2.5625 -8.507812 -2.59375 -8.9375 C -2.632812 -9.375 -2.773438 -9.757812 -3.015625 -10.09375 C -3.253906 -10.4375 -3.601562 -10.695312 -4.0625 -10.875 C -4.539062 -11.0625 -4.984375 -11.109375 -5.390625 -11.015625 C -5.796875 -10.929688 -6.15625 -10.742188 -6.46875 -10.453125 C -6.78125 -10.160156 -7.019531 -9.800781 -7.1875 -9.375 L -8.390625 -6.328125 Z M -4 -4.609375 "/></g></g></g><g fill="#000000" fill-opacity="1"><g transform="translate(158.60258, 150.243374)"><g><path d="M 2.453125 -3.203125 C 2.066406 -2.691406 1.601562 -2.332031 1.0625 -2.125 C 0.53125 -1.925781 -0.0078125 -1.867188 -0.5625 -1.953125 C -1.125 -2.035156 -1.640625 -2.253906 -2.109375 -2.609375 C -2.523438 -2.921875 -2.835938 -3.316406 -3.046875 -3.796875 C -3.265625 -4.285156 -3.335938 -4.796875 -3.265625 -5.328125 C -3.785156 -5.140625 -4.289062 -5.082031 -4.78125 -5.15625 C -5.28125 -5.226562 -5.71875 -5.410156 -6.09375 -5.703125 C -6.570312 -6.066406 -6.921875 -6.503906 -7.140625 -7.015625 C -7.359375 -7.535156 -7.429688 -8.078125 -7.359375 -8.640625 C -7.296875 -9.203125 -7.085938 -9.710938 -6.734375 -10.171875 L -3.953125 -13.796875 L -2.84375 -12.9375 L -5.515625 -9.46875 C -5.722656 -9.195312 -5.84375 -8.90625 -5.875 -8.59375 C -5.90625 -8.28125 -5.859375 -7.976562 -5.734375 -7.6875 C -5.609375 -7.40625 -5.40625 -7.160156 -5.125 -6.953125 C -4.882812 -6.765625 -4.609375 -6.648438 -4.296875 -6.609375 C -3.992188 -6.578125 -3.695312 -6.625 -3.40625 -6.75 C -3.113281 -6.875 -2.863281 -7.070312 -2.65625 -7.34375 L -0.390625 -10.296875 L 0.71875 -9.4375 L -1.484375 -6.5625 C -1.734375 -6.238281 -1.875 -5.90625 -1.90625 -5.5625 C -1.9375 -5.226562 -1.882812 -4.910156 -1.75 -4.609375 C -1.613281 -4.304688 -1.414062 -4.054688 -1.15625 -3.859375 C -0.894531 -3.660156 -0.601562 -3.53125 -0.28125 -3.46875 C 0.03125 -3.414062 0.34375 -3.453125 0.65625 -3.578125 C 0.96875 -3.710938 1.238281 -3.929688 1.46875 -4.234375 L 4.09375 -7.640625 L 5.203125 -6.78125 Z M 2.453125 -3.203125 "/></g></g></g><g fill="#000000" fill-opacity="1"><g transform="translate(163.205979, 143.670326)"><g><path d="M 0.03125 -0.015625 L -2.96875 -10.75 C -3.09375 -11.21875 -3.09375 -11.625 -2.96875 -11.96875 C -2.84375 -12.3125 -2.613281 -12.601562 -2.28125 -12.84375 C -1.957031 -13.09375 -1.609375 -13.226562 -1.234375 -13.25 C -0.859375 -13.269531 -0.472656 -13.144531 -0.078125 -12.875 L 9.265625 -6.78125 L 7.859375 -5.765625 L 5.421875 -7.421875 L 0.546875 -3.859375 L 1.375 -1 Z M 0.125 -5.28125 L 4.203125 -8.265625 L -0.84375 -11.65625 C -0.96875 -11.738281 -1.078125 -11.789062 -1.171875 -11.8125 C -1.273438 -11.832031 -1.375 -11.804688 -1.46875 -11.734375 C -1.5625 -11.671875 -1.609375 -11.585938 -1.609375 -11.484375 C -1.617188 -11.390625 -1.601562 -11.269531 -1.5625 -11.125 Z M 0.125 -5.28125 "/></g></g></g><g fill="#000000" fill-opacity="1"><g transform="translate(171.225952, 137.50201)"><g><path d="M 1.1875 -0.390625 L -2.375 -11.359375 L 1.125 -12.5 C 2.300781 -12.875 3.390625 -12.960938 4.390625 -12.765625 C 5.390625 -12.578125 6.257812 -12.144531 7 -11.46875 C 7.75 -10.800781 8.296875 -9.9375 8.640625 -8.875 C 8.984375 -7.800781 9.050781 -6.773438 8.84375 -5.796875 C 8.644531 -4.828125 8.195312 -3.96875 7.5 -3.21875 C 6.800781 -2.46875 5.863281 -1.90625 4.6875 -1.53125 Z M 2.25 -2.21875 L 4.265625 -2.875 C 5.078125 -3.132812 5.742188 -3.53125 6.265625 -4.0625 C 6.796875 -4.601562 7.144531 -5.242188 7.3125 -5.984375 C 7.476562 -6.722656 7.421875 -7.523438 7.140625 -8.390625 C 6.859375 -9.253906 6.429688 -9.929688 5.859375 -10.421875 C 5.296875 -10.921875 4.640625 -11.234375 3.890625 -11.359375 C 3.148438 -11.484375 2.375 -11.414062 1.5625 -11.15625 L -0.453125 -10.5 Z M 2.25 -2.21875 "/></g></g></g><g fill="#000000" fill-opacity="1"><g transform="translate(181.383772, 134.493659)"><g/></g></g><g fill="#000000" fill-opacity="1"><g transform="translate(184.418198, 132.966961)"><g><path d="M 8.71875 2.078125 C 8.15625 1.953125 7.671875 1.703125 7.265625 1.328125 C 6.859375 0.960938 6.570312 0.519531 6.40625 0 C 6.25 -0.53125 6.234375 -1.109375 6.359375 -1.734375 L 7.5625 -7.34375 C 7.625 -7.625 7.609375 -7.894531 7.515625 -8.15625 C 7.429688 -8.425781 7.28125 -8.65625 7.0625 -8.84375 C 6.851562 -9.03125 6.613281 -9.15625 6.34375 -9.21875 C 6.070312 -9.269531 5.804688 -9.253906 5.546875 -9.171875 C 5.285156 -9.085938 5.0625 -8.9375 4.875 -8.71875 C 4.6875 -8.507812 4.5625 -8.265625 4.5 -7.984375 L 2.671875 0.578125 L 1.125 0.234375 L 2.90625 -8.109375 C 3.03125 -8.703125 3.269531 -9.207031 3.625 -9.625 C 3.988281 -10.039062 4.429688 -10.332031 4.953125 -10.5 C 5.472656 -10.664062 6.035156 -10.6875 6.640625 -10.5625 C 7.253906 -10.425781 7.765625 -10.175781 8.171875 -9.8125 C 8.578125 -9.445312 8.851562 -9 9 -8.46875 C 9.144531 -7.945312 9.15625 -7.390625 9.03125 -6.796875 L 7.828125 -1.1875 C 7.765625 -0.894531 7.78125 -0.613281 7.875 -0.34375 C 7.976562 -0.0820312 8.128906 0.140625 8.328125 0.328125 C 8.523438 0.523438 8.753906 0.648438 9.015625 0.703125 C 9.296875 0.765625 9.5625 0.75 9.8125 0.65625 C 10.070312 0.5625 10.289062 0.410156 10.46875 0.203125 C 10.644531 -0.00390625 10.765625 -0.253906 10.828125 -0.546875 L 12.03125 -6.15625 C 12.15625 -6.75 12.398438 -7.253906 12.765625 -7.671875 C 13.140625 -8.085938 13.585938 -8.378906 14.109375 -8.546875 C 14.628906 -8.710938 15.195312 -8.726562 15.8125 -8.59375 C 16.40625 -8.46875 16.898438 -8.222656 17.296875 -7.859375 C 17.703125 -7.492188 17.984375 -7.046875 18.140625 -6.515625 C 18.296875 -5.984375 18.3125 -5.421875 18.1875 -4.828125 L 16.40625 3.515625 L 14.859375 3.1875 L 16.6875 -5.375 C 16.75 -5.65625 16.738281 -5.929688 16.65625 -6.203125 C 16.570312 -6.472656 16.425781 -6.703125 16.21875 -6.890625 C 16.019531 -7.078125 15.785156 -7.195312 15.515625 -7.25 C 15.210938 -7.3125 14.929688 -7.300781 14.671875 -7.21875 C 14.421875 -7.132812 14.203125 -6.984375 14.015625 -6.765625 C 13.828125 -6.554688 13.703125 -6.3125 13.640625 -6.03125 L 12.4375 -0.421875 C 12.3125 0.203125 12.0625 0.71875 11.6875 1.125 C 11.320312 1.539062 10.878906 1.832031 10.359375 2 C 9.847656 2.175781 9.300781 2.203125 8.71875 2.078125 Z M 8.71875 2.078125 "/></g></g></g><g fill="#000000" fill-opacity="1"><g transform="translate(200.190729, 136.962619)"><g><path d="M 0.734375 0.453125 L 1.484375 -0.734375 L 3.359375 0.453125 L 8.015625 -6.921875 L 6.140625 -8.109375 L 6.890625 -9.296875 L 11.96875 -6.078125 L 11.21875 -4.890625 L 9.34375 -6.078125 L 4.6875 1.296875 L 6.5625 2.484375 L 5.8125 3.671875 Z M 0.734375 0.453125 "/></g></g></g><g fill="#000000" fill-opacity="1"><g transform="translate(205.992495, 139.939005)"><g><path d="M 5.765625 6.875 C 5.359375 6.414062 5.109375 5.914062 5.015625 5.375 C 4.921875 4.84375 4.96875 4.316406 5.15625 3.796875 C 5.34375 3.285156 5.660156 2.828125 6.109375 2.421875 L 10.4375 -1.375 C 10.65625 -1.5625 10.8125 -1.789062 10.90625 -2.0625 C 11 -2.332031 11.015625 -2.601562 10.953125 -2.875 C 10.898438 -3.15625 10.78125 -3.398438 10.59375 -3.609375 C 10.40625 -3.816406 10.179688 -3.960938 9.921875 -4.046875 C 9.660156 -4.140625 9.390625 -4.15625 9.109375 -4.09375 C 8.835938 -4.039062 8.59375 -3.921875 8.375 -3.734375 L 1.796875 2.046875 L 0.765625 0.875 L 7.171875 -4.75 C 7.628906 -5.15625 8.125 -5.421875 8.65625 -5.546875 C 9.195312 -5.671875 9.722656 -5.644531 10.234375 -5.46875 C 10.753906 -5.289062 11.21875 -4.972656 11.625 -4.515625 C 12.03125 -4.046875 12.285156 -3.539062 12.390625 -3 C 12.503906 -2.46875 12.460938 -1.941406 12.265625 -1.421875 C 12.078125 -0.910156 11.753906 -0.453125 11.296875 -0.046875 L 6.984375 3.75 C 6.765625 3.9375 6.609375 4.164062 6.515625 4.4375 C 6.429688 4.707031 6.414062 4.976562 6.46875 5.25 C 6.519531 5.519531 6.632812 5.753906 6.8125 5.953125 C 7 6.171875 7.21875 6.316406 7.46875 6.390625 C 7.726562 6.472656 7.992188 6.484375 8.265625 6.421875 C 8.546875 6.359375 8.796875 6.234375 9.015625 6.046875 L 15.578125 0.265625 L 16.625 1.46875 L 10.21875 7.09375 C 9.769531 7.5 9.273438 7.757812 8.734375 7.875 C 8.191406 7.988281 7.660156 7.96875 7.140625 7.8125 C 6.628906 7.65625 6.171875 7.34375 5.765625 6.875 Z M 5.765625 6.875 "/></g></g></g><g fill="#000000" fill-opacity="1"><g transform="translate(213.821005, 148.661498)"><g><path d="M 0.46875 1.15625 L 11.171875 -3.109375 L 12.53125 0.328125 C 12.988281 1.460938 13.15625 2.535156 13.03125 3.546875 C 12.90625 4.566406 12.53125 5.46875 11.90625 6.25 C 11.28125 7.03125 10.453125 7.625 9.421875 8.03125 C 8.367188 8.445312 7.347656 8.585938 6.359375 8.453125 C 5.378906 8.316406 4.492188 7.921875 3.703125 7.265625 C 2.910156 6.617188 2.285156 5.726562 1.828125 4.59375 Z M 2.359375 2.109375 L 3.140625 4.078125 C 3.460938 4.878906 3.90625 5.519531 4.46875 6 C 5.039062 6.488281 5.703125 6.789062 6.453125 6.90625 C 7.203125 7.03125 8 6.921875 8.84375 6.578125 C 9.6875 6.242188 10.335938 5.773438 10.796875 5.171875 C 11.253906 4.578125 11.519531 3.90625 11.59375 3.15625 C 11.675781 2.414062 11.554688 1.644531 11.234375 0.84375 L 10.453125 -1.125 Z M 2.359375 2.109375 "/></g></g></g><g clip-path="url(#b1e84efd48)"><path fill="#e482b1" d="M 178.640625 149.859375 C 176.964844 152.417969 173.699219 155.71875 170.519531 157.945312 C 165.246094 161.738281 165.160156 161.738281 167.085938 162.976562 C 170.769531 165.285156 178.390625 172.875 179.980469 175.765625 C 180.816406 177.332031 181.738281 178.652344 181.988281 178.652344 C 182.242188 178.652344 183.160156 177.332031 184 175.765625 C 185.589844 172.875 193.292969 165.285156 197.058594 162.894531 L 199.070312 161.574219 L 197.058594 160.5 C 192.957031 158.355469 187.933594 153.738281 185.339844 149.695312 C 183.832031 147.46875 182.40625 145.652344 182.074219 145.652344 C 181.738281 145.652344 180.148438 147.550781 178.640625 149.859375 Z M 178.640625 149.859375 " fill-opacity="1" fill-rule="nonzero"/></g><g clip-path="url(#dedb667f19)"><path fill="#0e9d62" d="M 186.003906 149.859375 C 184.328125 152.417969 181.0625 155.71875 177.882812 157.945312 C 172.609375 161.738281 172.523438 161.738281 174.449219 162.976562 C 178.132812 165.285156 185.753906 172.875 187.34375 175.765625 C 188.179688 177.332031 189.101562 178.652344 189.351562 178.652344 C 189.601562 178.652344 190.523438 177.332031 191.363281 175.765625 C 192.953125 172.875 200.65625 165.285156 204.421875 162.894531 L 206.433594 161.574219 L 204.421875 160.5 C 200.320312 158.355469 195.296875 153.738281 192.703125 149.695312 C 191.195312 147.46875 189.769531 145.652344 189.4375 145.652344 C 189.101562 145.652344 187.511719 147.550781 186.003906 149.859375 Z M 186.003906 149.859375 " fill-opacity="1" fill-rule="nonzero"/></g><g fill="#000000" fill-opacity="1"><g transform="translate(146.548861, 163.933178)"><g><path d="M 8.453125 0.203125 L 8.90625 3.53125 L 6.46875 3.875 C 7.414062 4.101562 8.125 4.394531 8.59375 4.75 C 9.0625 5.101562 9.320312 5.488281 9.375 5.90625 C 9.40625 6.132812 9.367188 6.320312 9.265625 6.46875 C 9.171875 6.625 9.046875 6.710938 8.890625 6.734375 C 8.742188 6.753906 8.625 6.75 8.53125 6.71875 C 8.445312 6.6875 8.367188 6.640625 8.296875 6.578125 C 8.140625 6.472656 8.050781 6.359375 8.03125 6.234375 C 8.007812 6.035156 8.015625 5.882812 8.046875 5.78125 C 8.085938 5.613281 8.097656 5.46875 8.078125 5.34375 C 8.066406 5.21875 7.945312 5.070312 7.71875 4.90625 C 7.5 4.75 7.203125 4.601562 6.828125 4.46875 C 5.910156 4.164062 4.953125 4.082031 3.953125 4.21875 L 0.640625 4.671875 L 0.1875 1.34375 Z M 8.453125 0.203125 "/></g></g></g><g fill="#000000" fill-opacity="1"><g transform="translate(147.679282, 172.427828)"><g><path d="M 5.015625 7.25 C 5.085938 7.4375 5.035156 7.566406 4.859375 7.640625 C 4.722656 7.691406 4.535156 7.671875 4.296875 7.578125 C 3.203125 7.140625 2.382812 6.253906 1.84375 4.921875 C 1.351562 3.734375 1.300781 2.585938 1.6875 1.484375 C 2.09375 0.328125 2.867188 -0.476562 4.015625 -0.9375 C 5.179688 -1.414062 6.296875 -1.425781 7.359375 -0.96875 C 8.492188 -0.5 9.332031 0.40625 9.875 1.75 C 10.3125 2.820312 10.351562 3.851562 10 4.84375 C 9.613281 5.914062 8.851562 6.6875 7.71875 7.15625 C 7.550781 7.21875 7.378906 7.28125 7.203125 7.34375 L 5.25 2.5625 L 2.140625 3.828125 C 2.210938 4.179688 2.332031 4.5625 2.5 4.96875 C 2.851562 5.832031 3.441406 6.457031 4.265625 6.84375 C 4.441406 6.914062 4.578125 6.960938 4.671875 6.984375 C 4.847656 7.046875 4.960938 7.132812 5.015625 7.25 Z M 9.640625 3.109375 C 9.617188 2.765625 9.523438 2.394531 9.359375 2 C 9.203125 1.601562 9.046875 1.296875 8.890625 1.078125 L 5.78125 2.34375 L 6.59375 4.34375 Z M 9.640625 3.109375 "/></g></g></g><g fill="#000000" fill-opacity="1"><g transform="translate(152.083649, 182.93406)"><g><path d="M 4.5625 4.765625 C 3.789062 4.523438 3.148438 4.09375 2.640625 3.46875 C 1.953125 2.632812 1.617188 1.789062 1.640625 0.9375 C 1.628906 0.0625 2.007812 -0.6875 2.78125 -1.3125 C 3.457031 -1.863281 4.234375 -2.054688 5.109375 -1.890625 C 5.972656 -1.710938 6.757812 -1.195312 7.46875 -0.34375 C 7.945312 0.238281 8.28125 0.878906 8.46875 1.578125 L 10.125 0.203125 C 9.9375 -0.242188 9.726562 -0.609375 9.5 -0.890625 C 9.269531 -1.171875 9.0625 -1.394531 8.875 -1.5625 C 8.695312 -1.738281 8.515625 -1.894531 8.328125 -2.03125 C 7.910156 -2.320312 7.535156 -2.488281 7.203125 -2.53125 C 7.003906 -2.5625 6.867188 -2.625 6.796875 -2.71875 C 6.722656 -2.8125 6.6875 -2.898438 6.6875 -2.984375 C 6.695312 -3.066406 6.726562 -3.128906 6.78125 -3.171875 C 6.832031 -3.222656 6.890625 -3.257812 6.953125 -3.28125 C 7.023438 -3.300781 7.109375 -3.300781 7.203125 -3.28125 C 7.398438 -3.25 7.664062 -3.132812 8 -2.9375 C 8.707031 -2.53125 9.300781 -2.03125 9.78125 -1.4375 C 11.238281 0.34375 11.742188 1.832031 11.296875 3.03125 C 11.097656 3.5625 10.691406 4.078125 10.078125 4.578125 L 6.28125 7.6875 L 4.15625 5.09375 Z M 7.984375 1.953125 C 7.828125 1.242188 7.539062 0.640625 7.125 0.140625 C 7.0625 0.0546875 6.992188 -0.015625 6.921875 -0.078125 L 3.078125 3.0625 C 3.097656 3.082031 3.113281 3.101562 3.125 3.125 C 3.144531 3.15625 3.164062 3.179688 3.1875 3.203125 C 3.644531 3.753906 4.273438 4.132812 5.078125 4.34375 Z M 7.984375 1.953125 "/></g></g></g><g fill="#000000" fill-opacity="1"><g transform="translate(160.024107, 192.388547)"><g><path d="M 6.375 3.515625 C 5.613281 3.503906 4.925781 3.300781 4.3125 2.90625 C 3.695312 2.519531 3.210938 2.085938 2.859375 1.609375 C 2.515625 1.140625 2.28125 0.632812 2.15625 0.09375 C 1.90625 -1.03125 2.125 -2.140625 2.8125 -3.234375 C 3.457031 -4.242188 4.332031 -4.863281 5.4375 -5.09375 C 6.613281 -5.351562 7.78125 -5.117188 8.9375 -4.390625 C 9.550781 -3.992188 10.050781 -3.488281 10.4375 -2.875 L 12.0625 -5.453125 L 14.78125 -3.734375 L 8.859375 5.609375 L 6.140625 3.890625 Z M 8.5 -3.984375 C 8.363281 -4.066406 8.226562 -4.144531 8.09375 -4.21875 L 4.140625 2.046875 C 4.285156 2.171875 4.445312 2.289062 4.625 2.40625 C 5.238281 2.789062 5.945312 2.96875 6.75 2.9375 L 10.0625 -2.28125 C 9.675781 -3 9.15625 -3.566406 8.5 -3.984375 Z M 8.5 -3.984375 "/></g></g></g><g fill="#000000" fill-opacity="1"><g transform="translate(170.961363, 198.753613)"><g><path d="M 5.875 -8.296875 C 5.363281 -8.460938 5 -8.707031 4.78125 -9.03125 C 4.570312 -9.351562 4.523438 -9.695312 4.640625 -10.0625 C 4.742188 -10.375 4.988281 -10.59375 5.375 -10.71875 C 5.800781 -10.84375 6.203125 -10.84375 6.578125 -10.71875 C 6.953125 -10.59375 7.226562 -10.457031 7.40625 -10.3125 C 7.59375 -10.175781 7.734375 -10.023438 7.828125 -9.859375 C 8.046875 -9.535156 8.097656 -9.207031 7.984375 -8.875 C 7.890625 -8.5625 7.632812 -8.34375 7.21875 -8.21875 C 6.832031 -8.101562 6.382812 -8.128906 5.875 -8.296875 Z M 3.890625 -7.5 L 7.078125 -6.453125 L 4.484375 1.46875 L 1.296875 0.421875 Z M 3.890625 -7.5 "/></g></g></g><g fill="#000000" fill-opacity="1"><g transform="translate(177.50643, 201.138814)"><g><path d="M 7.625 -7 C 7.5 -7.09375 7.359375 -7.144531 7.203125 -7.15625 C 7.054688 -7.164062 6.898438 -7.140625 6.734375 -7.078125 C 6.566406 -7.015625 6.390625 -6.925781 6.203125 -6.8125 C 5.828125 -6.582031 5.46875 -6.253906 5.125 -5.828125 L 4.703125 0.3125 L 1.359375 0.09375 L 1.921875 -8.234375 L 5.265625 -8.015625 L 5.171875 -6.6875 C 6.128906 -7.601562 7.171875 -8.023438 8.296875 -7.953125 C 10.128906 -7.828125 10.984375 -6.875 10.859375 -5.09375 L 10.46875 0.703125 L 7.125 0.484375 Z M 7.625 -7 "/></g></g></g><g fill="#000000" fill-opacity="1"><g transform="translate(190.385057, 201.656823)"><g><path d="M 2.40625 -3.1875 C 1.976562 -2.9375 1.785156 -2.726562 1.828125 -2.5625 C 1.859375 -2.40625 2.015625 -2.328125 2.296875 -2.328125 C 2.835938 -2.328125 3.554688 -2.421875 4.453125 -2.609375 C 5.359375 -2.796875 6.050781 -2.882812 6.53125 -2.875 C 7.007812 -2.863281 7.40625 -2.804688 7.71875 -2.703125 C 8.28125 -2.492188 8.625 -2.125 8.75 -1.59375 C 8.90625 -0.925781 8.703125 -0.3125 8.140625 0.25 C 7.523438 0.863281 6.554688 1.320312 5.234375 1.625 C 3.867188 1.945312 2.695312 2.007812 1.71875 1.8125 C 1.363281 1.726562 1.160156 1.585938 1.109375 1.390625 C 1.085938 1.304688 1.101562 1.226562 1.15625 1.15625 C 1.207031 1.09375 1.269531 1.050781 1.34375 1.03125 C 1.425781 1.019531 1.535156 1.035156 1.671875 1.078125 C 1.960938 1.148438 2.226562 1.210938 2.46875 1.265625 C 2.707031 1.316406 3.070312 1.332031 3.5625 1.3125 C 4.050781 1.289062 4.515625 1.226562 4.953125 1.125 C 5.398438 1.019531 5.757812 0.914062 6.03125 0.8125 C 6.300781 0.707031 6.519531 0.613281 6.6875 0.53125 C 7.019531 0.34375 7.171875 0.179688 7.140625 0.046875 C 7.117188 -0.0664062 7.066406 -0.144531 6.984375 -0.1875 C 6.898438 -0.226562 6.789062 -0.257812 6.65625 -0.28125 C 6.53125 -0.300781 6.363281 -0.300781 6.15625 -0.28125 C 5.726562 -0.257812 5.148438 -0.179688 4.421875 -0.046875 C 3.703125 0.078125 3.117188 0.132812 2.671875 0.125 C 2.234375 0.125 1.863281 0.0703125 1.5625 -0.03125 C 0.988281 -0.226562 0.640625 -0.585938 0.515625 -1.109375 C 0.335938 -1.867188 0.703125 -2.601562 1.609375 -3.3125 C 1.085938 -3.46875 0.640625 -3.722656 0.265625 -4.078125 C -0.109375 -4.429688 -0.351562 -4.859375 -0.46875 -5.359375 C -0.59375 -5.859375 -0.601562 -6.304688 -0.5 -6.703125 C -0.40625 -7.109375 -0.222656 -7.484375 0.046875 -7.828125 C 0.628906 -8.554688 1.476562 -9.050781 2.59375 -9.3125 C 3.09375 -9.4375 3.609375 -9.476562 4.140625 -9.4375 C 4.691406 -10.300781 5.273438 -10.804688 5.890625 -10.953125 C 6.148438 -11.003906 6.351562 -11.003906 6.5 -10.953125 C 6.644531 -10.898438 6.734375 -10.804688 6.765625 -10.671875 C 6.796875 -10.546875 6.773438 -10.441406 6.703125 -10.359375 C 6.628906 -10.273438 6.554688 -10.222656 6.484375 -10.203125 C 6.347656 -10.171875 6.222656 -10.160156 6.109375 -10.171875 C 5.960938 -10.191406 5.816406 -10.1875 5.671875 -10.15625 C 5.398438 -10.09375 5.097656 -9.820312 4.765625 -9.34375 C 5.691406 -9.132812 6.367188 -8.675781 6.796875 -7.96875 C 6.929688 -7.726562 7.039062 -7.421875 7.125 -7.046875 C 7.21875 -6.679688 7.195312 -6.289062 7.0625 -5.875 C 6.9375 -5.46875 6.726562 -5.09375 6.4375 -4.75 C 5.820312 -4.019531 5.015625 -3.539062 4.015625 -3.3125 C 3.503906 -3.175781 2.96875 -3.132812 2.40625 -3.1875 Z M 3.921875 -3.875 C 4.742188 -4.082031 5.398438 -4.445312 5.890625 -4.96875 C 6.484375 -5.570312 6.691406 -6.253906 6.515625 -7.015625 C 6.335938 -7.773438 5.851562 -8.3125 5.0625 -8.625 C 4.34375 -8.90625 3.582031 -8.960938 2.78125 -8.796875 Z M 3.921875 -3.875 "/></g></g></g><g fill="#000000" fill-opacity="1"><g transform="translate(200.074902, 199.061474)"><g/></g></g><g fill="#000000" fill-opacity="1"><g transform="translate(204.061306, 197.506666)"><g><path d="M 3.453125 -2.90625 C 3.679688 -2.988281 3.898438 -3.097656 4.109375 -3.234375 C 4.316406 -3.378906 4.503906 -3.53125 4.671875 -3.6875 C 4.847656 -3.84375 5.003906 -4.007812 5.140625 -4.1875 C 5.410156 -4.5625 5.597656 -4.925781 5.703125 -5.28125 C 5.765625 -5.519531 5.835938 -5.664062 5.921875 -5.71875 C 6.078125 -5.832031 6.203125 -5.816406 6.296875 -5.671875 C 6.398438 -5.523438 6.382812 -5.257812 6.25 -4.875 C 5.914062 -4.039062 5.304688 -3.332031 4.421875 -2.75 C 3.273438 -1.988281 2.117188 -1.71875 0.953125 -1.9375 C -0.179688 -2.164062 -1.101562 -2.820312 -1.8125 -3.90625 C -2.5 -4.925781 -2.695312 -6.007812 -2.40625 -7.15625 C -2.113281 -8.300781 -1.414062 -9.238281 -0.3125 -9.96875 C 0.320312 -10.382812 1.015625 -10.65625 1.765625 -10.78125 C 2.335938 -10.882812 2.6875 -10.835938 2.8125 -10.640625 C 2.875 -10.554688 2.894531 -10.472656 2.875 -10.390625 C 2.851562 -10.304688 2.8125 -10.242188 2.75 -10.203125 C 2.664062 -10.140625 2.515625 -10.113281 2.296875 -10.125 C 1.835938 -10.207031 1.296875 -10.117188 0.671875 -9.859375 C 0.453125 -9.765625 0.222656 -9.640625 -0.015625 -9.484375 C -0.253906 -9.328125 -0.453125 -9.175781 -0.609375 -9.03125 Z M 3.453125 -2.90625 "/></g></g></g><g fill="#000000" fill-opacity="1"><g transform="translate(211.95278, 191.988673)"><g><path d="M -6.9375 -8.71875 L -4.578125 -11.109375 L 3.3125 -3.359375 L 0.953125 -0.96875 Z M -6.9375 -8.71875 "/></g></g></g><g fill="#000000" fill-opacity="1"><g transform="translate(216.996121, 187.185485)"><g><path d="M 2.203125 -3.453125 C 1.273438 -1.867188 0.0351562 -1.53125 -1.515625 -2.4375 L -6.53125 -5.359375 L -4.84375 -8.25 L 1.75 -4.40625 C 1.8125 -4.425781 1.863281 -4.472656 1.90625 -4.546875 L 2.03125 -4.765625 C 2.238281 -5.128906 2.242188 -5.695312 2.046875 -6.46875 C 1.972656 -6.71875 1.894531 -6.957031 1.8125 -7.1875 L -3.609375 -10.34375 L -1.921875 -13.234375 L 5.28125 -9.03125 L 3.59375 -6.140625 L 2.5625 -6.75 C 2.914062 -5.5625 2.796875 -4.460938 2.203125 -3.453125 Z M 2.203125 -3.453125 "/></g></g></g><g fill="#000000" fill-opacity="1"><g transform="translate(223.3918, 175.811721)"><g><path d="M 1.46875 -6.515625 C 1.320312 -5.796875 1.015625 -5.132812 0.546875 -4.53125 L 0.890625 -4.46875 L 0.265625 -1.328125 L -10.578125 -3.5 L -9.953125 -6.640625 L -6.90625 -6.03125 C -7.113281 -6.75 -7.144531 -7.460938 -7 -8.171875 C -6.863281 -8.878906 -6.640625 -9.476562 -6.328125 -9.96875 C -6.015625 -10.46875 -5.632812 -10.875 -5.1875 -11.1875 C -4.25 -11.820312 -3.179688 -12.019531 -1.984375 -11.78125 C -0.753906 -11.539062 0.179688 -10.945312 0.828125 -10 C 1.515625 -9.019531 1.726562 -7.859375 1.46875 -6.515625 Z M -6.46875 -8.0625 C -6.613281 -7.300781 -6.539062 -6.578125 -6.25 -5.890625 L -0.109375 -4.671875 C 0.410156 -5.265625 0.753906 -5.972656 0.921875 -6.796875 L 0.96875 -7 C 0.976562 -7.0625 0.984375 -7.128906 0.984375 -7.203125 L -6.296875 -8.65625 C -6.367188 -8.457031 -6.425781 -8.257812 -6.46875 -8.0625 Z M -6.46875 -8.0625 "/></g></g></g></svg>