<svg xmlns="http://www.w3.org/2000/svg" xmlns:xlink="http://www.w3.org/1999/xlink" width="500" zoomAndPan="magnify" viewBox="0 0 375 374.999991" height="500" preserveAspectRatio="xMidYMid meet" version="1.0"><defs><g/><clipPath id="5fdadfda1a"><path d="M 103.441406 111.90625 L 241 111.90625 L 241 248.808594 L 103.441406 248.808594 Z M 103.441406 111.90625 " clip-rule="nonzero"/></clipPath><clipPath id="9fb537d369"><path d="M 133 111.90625 L 271.453125 111.90625 L 271.453125 248.808594 L 133 248.808594 Z M 133 111.90625 " clip-rule="nonzero"/></clipPath></defs><rect x="-37.5" width="450" fill="#ffffff" y="-37.499999" height="449.999989" fill-opacity="1"/><rect x="-37.5" width="450" fill="#ffffff" y="-37.499999" height="449.999989" fill-opacity="1"/><g fill="#000000" fill-opacity="1"><g transform="translate(58.25683, 169.233485)"><g><path d="M 1.890625 -4.828125 L -42.65625 -22.265625 L -35.015625 -41.8125 C -33.910156 -44.613281 -32.304688 -46.921875 -30.203125 -48.734375 C -28.097656 -50.546875 -25.6875 -51.703125 -22.96875 -52.203125 C -20.25 -52.710938 -17.425781 -52.394531 -14.5 -51.25 C -11.53125 -50.082031 -9.207031 -48.300781 -7.53125 -45.90625 C -5.851562 -43.519531 -4.957031 -40.835938 -4.84375 -37.859375 L 6.703125 -38.84375 C 7.503906 -38.914062 8.144531 -39.09375 8.625 -39.375 C 9.101562 -39.65625 9.488281 -40.175781 9.78125 -40.9375 L 11.03125 -44.125 L 16.4375 -42 L 14.828125 -37.875 C 14.171875 -36.21875 13.171875 -34.925781 11.828125 -34 C 10.492188 -33.082031 8.945312 -32.503906 7.1875 -32.265625 L -5.78125 -31.171875 C -5.90625 -30.734375 -6.050781 -30.265625 -6.21875 -29.765625 C -6.382812 -29.265625 -6.566406 -28.765625 -6.765625 -28.265625 L -11.1875 -16.984375 L 4.28125 -10.9375 Z M -16.59375 -19.109375 L -11.65625 -31.71875 C -10.945312 -33.539062 -10.65625 -35.34375 -10.78125 -37.125 C -10.90625 -38.914062 -11.476562 -40.507812 -12.5 -41.90625 C -13.519531 -43.3125 -14.984375 -44.390625 -16.890625 -45.140625 C -18.835938 -45.898438 -20.664062 -46.101562 -22.375 -45.75 C -24.082031 -45.394531 -25.585938 -44.613281 -26.890625 -43.40625 C -28.203125 -42.195312 -29.203125 -40.703125 -29.890625 -38.921875 L -34.859375 -26.25 Z M -16.59375 -19.109375 "/></g></g></g><g fill="#000000" fill-opacity="1"><g transform="translate(73.026679, 130.955714)"><g><path d="M 10.1875 -13.296875 C 8.570312 -11.191406 6.648438 -9.71875 4.421875 -8.875 C 2.203125 -8.039062 -0.0625 -7.789062 -2.375 -8.125 C -4.695312 -8.457031 -6.820312 -9.359375 -8.75 -10.828125 C -10.476562 -12.160156 -11.789062 -13.8125 -12.6875 -15.78125 C -13.59375 -17.757812 -13.878906 -19.859375 -13.546875 -22.078125 C -15.691406 -21.304688 -17.789062 -21.078125 -19.84375 -21.390625 C -21.90625 -21.710938 -23.734375 -22.484375 -25.328125 -23.703125 C -27.273438 -25.191406 -28.691406 -27.003906 -29.578125 -29.140625 C -30.460938 -31.285156 -30.773438 -33.519531 -30.515625 -35.84375 C -30.253906 -38.175781 -29.390625 -40.300781 -27.921875 -42.21875 L -16.421875 -57.234375 L -11.8125 -53.703125 L -22.859375 -39.28125 C -23.722656 -38.15625 -24.210938 -36.953125 -24.328125 -35.671875 C -24.453125 -34.390625 -24.265625 -33.15625 -23.765625 -31.96875 C -23.265625 -30.78125 -22.457031 -29.757812 -21.34375 -28.90625 C -20.289062 -28.101562 -19.128906 -27.628906 -17.859375 -27.484375 C -16.585938 -27.335938 -15.34375 -27.515625 -14.125 -28.015625 C -12.914062 -28.523438 -11.894531 -29.320312 -11.0625 -30.40625 L -1.640625 -42.734375 L 2.984375 -39.203125 L -6.140625 -27.265625 C -7.171875 -25.921875 -7.753906 -24.539062 -7.890625 -23.125 C -8.035156 -21.707031 -7.828125 -20.367188 -7.265625 -19.109375 C -6.710938 -17.847656 -5.894531 -16.800781 -4.8125 -15.96875 C -3.726562 -15.144531 -2.519531 -14.625 -1.1875 -14.40625 C 0.144531 -14.195312 1.453125 -14.347656 2.734375 -14.859375 C 4.015625 -15.367188 5.140625 -16.257812 6.109375 -17.53125 L 16.953125 -31.6875 L 21.5625 -28.15625 Z M 10.1875 -13.296875 "/></g></g></g><g fill="#000000" fill-opacity="1"><g transform="translate(92.123802, 103.687531)"><g><path d="M 0.109375 -0.078125 L -12.328125 -44.609375 C -12.847656 -46.535156 -12.847656 -48.222656 -12.328125 -49.671875 C -11.804688 -51.128906 -10.863281 -52.351562 -9.5 -53.34375 C -8.144531 -54.34375 -6.695312 -54.882812 -5.15625 -54.96875 C -3.613281 -55.050781 -2.015625 -54.546875 -0.359375 -53.453125 L 38.4375 -28.15625 L 32.625 -23.90625 L 22.453125 -30.765625 L 2.265625 -15.984375 L 5.6875 -4.171875 Z M 0.484375 -21.875 L 17.40625 -34.28125 L -3.5 -48.375 C -4.03125 -48.71875 -4.492188 -48.9375 -4.890625 -49.03125 C -5.296875 -49.125 -5.703125 -49.019531 -6.109375 -48.71875 C -6.484375 -48.445312 -6.6875 -48.101562 -6.71875 -47.6875 C -6.75 -47.269531 -6.664062 -46.769531 -6.46875 -46.1875 Z M 0.484375 -21.875 "/></g></g></g><g fill="#000000" fill-opacity="1"><g transform="translate(125.394638, 78.098337)"><g><path d="M 4.9375 -1.609375 L -9.875 -47.109375 L 4.6875 -51.84375 C 9.53125 -53.425781 14.035156 -53.8125 18.203125 -53 C 22.367188 -52.195312 25.984375 -50.398438 29.046875 -47.609375 C 32.117188 -44.828125 34.375 -41.226562 35.8125 -36.8125 C 37.25 -32.394531 37.546875 -28.15625 36.703125 -24.09375 C 35.867188 -20.039062 34.003906 -16.460938 31.109375 -13.359375 C 28.210938 -10.265625 24.34375 -7.925781 19.5 -6.34375 Z M 9.375 -9.171875 L 17.765625 -11.90625 C 21.148438 -13 23.925781 -14.664062 26.09375 -16.90625 C 28.257812 -19.144531 29.679688 -21.796875 30.359375 -24.859375 C 31.035156 -27.929688 30.796875 -31.25 29.640625 -34.8125 C 28.472656 -38.40625 26.710938 -41.234375 24.359375 -43.296875 C 22.015625 -45.359375 19.304688 -46.65625 16.234375 -47.1875 C 13.160156 -47.71875 9.929688 -47.4375 6.546875 -46.34375 L -1.84375 -43.609375 Z M 9.375 -9.171875 "/></g></g></g><g fill="#000000" fill-opacity="1"><g transform="translate(167.534192, 65.618235)"><g/></g></g><g fill="#000000" fill-opacity="1"><g transform="translate(180.12243, 59.284746)"><g><path d="M 36.25 8.59375 C 33.84375 8.070312 31.800781 7.050781 30.125 5.53125 C 28.445312 4.007812 27.269531 2.164062 26.59375 0 C 25.914062 -2.175781 25.851562 -4.550781 26.40625 -7.125 L 31.390625 -30.40625 C 31.648438 -31.601562 31.59375 -32.753906 31.21875 -33.859375 C 30.84375 -34.960938 30.226562 -35.90625 29.375 -36.6875 C 28.519531 -37.476562 27.515625 -38 26.359375 -38.25 C 25.203125 -38.5 24.082031 -38.4375 23 -38.0625 C 21.914062 -37.6875 20.988281 -37.066406 20.21875 -36.203125 C 19.457031 -35.347656 18.945312 -34.320312 18.6875 -33.125 L 11.09375 2.375 L 4.671875 1 L 12.078125 -33.625 C 12.597656 -36.070312 13.601562 -38.160156 15.09375 -39.890625 C 16.59375 -41.617188 18.414062 -42.84375 20.5625 -43.5625 C 22.71875 -44.289062 25.046875 -44.390625 27.546875 -43.859375 C 30.085938 -43.316406 32.195312 -42.269531 33.875 -40.71875 C 35.550781 -39.175781 36.710938 -37.3125 37.359375 -35.125 C 38.003906 -32.9375 38.066406 -30.617188 37.546875 -28.171875 L 32.578125 -4.921875 C 32.304688 -3.660156 32.359375 -2.488281 32.734375 -1.40625 C 33.109375 -0.332031 33.710938 0.59375 34.546875 1.375 C 35.378906 2.164062 36.351562 2.679688 37.46875 2.921875 C 38.582031 3.160156 39.671875 3.085938 40.734375 2.703125 C 41.796875 2.328125 42.703125 1.71875 43.453125 0.875 C 44.210938 0.0390625 44.726562 -1.003906 45 -2.265625 L 49.96875 -25.515625 C 50.488281 -27.960938 51.507812 -30.046875 53.03125 -31.765625 C 54.550781 -33.492188 56.382812 -34.722656 58.53125 -35.453125 C 60.6875 -36.179688 63.035156 -36.269531 65.578125 -35.71875 C 68.066406 -35.1875 70.148438 -34.148438 71.828125 -32.609375 C 73.503906 -31.066406 74.664062 -29.203125 75.3125 -27.015625 C 75.957031 -24.828125 76.019531 -22.507812 75.5 -20.0625 L 68.09375 14.5625 L 61.6875 13.203125 L 69.28125 -22.296875 C 69.539062 -23.492188 69.492188 -24.640625 69.140625 -25.734375 C 68.796875 -26.835938 68.207031 -27.78125 67.375 -28.5625 C 66.539062 -29.351562 65.546875 -29.867188 64.390625 -30.109375 C 63.179688 -30.367188 62.035156 -30.3125 60.953125 -29.9375 C 59.867188 -29.5625 58.929688 -28.945312 58.140625 -28.09375 C 57.359375 -27.238281 56.835938 -26.210938 56.578125 -25.015625 L 51.59375 -1.734375 C 51.039062 0.835938 50.015625 2.976562 48.515625 4.6875 C 47.015625 6.394531 45.195312 7.597656 43.0625 8.296875 C 40.925781 9.003906 38.65625 9.101562 36.25 8.59375 Z M 36.25 8.59375 "/></g></g></g><g fill="#000000" fill-opacity="1"><g transform="translate(245.554611, 75.860689)"><g><path d="M 3 1.890625 L 6.09375 -3.03125 L 13.90625 1.890625 L 33.234375 -28.734375 L 25.421875 -33.65625 L 28.53125 -38.578125 L 49.640625 -25.265625 L 46.53125 -20.34375 L 38.78125 -25.234375 L 19.453125 5.390625 L 27.203125 10.28125 L 24.109375 15.203125 Z M 3 1.890625 "/></g></g></g><g fill="#000000" fill-opacity="1"><g transform="translate(269.623147, 88.208138)"><g><path d="M 23.96875 28.515625 C 22.289062 26.597656 21.242188 24.53125 20.828125 22.3125 C 20.421875 20.09375 20.609375 17.910156 21.390625 15.765625 C 22.179688 13.628906 23.519531 11.734375 25.40625 10.078125 L 43.328125 -5.671875 C 44.253906 -6.484375 44.894531 -7.441406 45.25 -8.546875 C 45.601562 -9.660156 45.675781 -10.785156 45.46875 -11.921875 C 45.257812 -13.066406 44.757812 -14.085938 43.96875 -14.984375 C 43.195312 -15.867188 42.257812 -16.484375 41.15625 -16.828125 C 40.0625 -17.179688 38.953125 -17.238281 37.828125 -17 C 36.703125 -16.769531 35.675781 -16.25 34.75 -15.4375 L 7.484375 8.515625 L 3.15625 3.59375 L 29.75 -19.765625 C 31.632812 -21.421875 33.691406 -22.5 35.921875 -23 C 38.148438 -23.5 40.347656 -23.394531 42.515625 -22.6875 C 44.679688 -21.988281 46.601562 -20.679688 48.28125 -18.765625 C 50 -16.804688 51.066406 -14.707031 51.484375 -12.46875 C 51.898438 -10.226562 51.71875 -8.035156 50.9375 -5.890625 C 50.15625 -3.753906 48.820312 -1.859375 46.9375 -0.203125 L 29.015625 15.53125 C 28.097656 16.34375 27.457031 17.300781 27.09375 18.40625 C 26.726562 19.507812 26.644531 20.625 26.84375 21.75 C 27.050781 22.875 27.53125 23.867188 28.28125 24.734375 C 29.03125 25.585938 29.941406 26.175781 31.015625 26.5 C 32.097656 26.832031 33.203125 26.878906 34.328125 26.640625 C 35.460938 26.410156 36.488281 25.890625 37.40625 25.078125 L 64.6875 1.125 L 69.015625 6.0625 L 42.40625 29.4375 C 40.519531 31.09375 38.460938 32.164062 36.234375 32.65625 C 34.003906 33.15625 31.820312 33.066406 29.6875 32.390625 C 27.5625 31.722656 25.65625 30.429688 23.96875 28.515625 Z M 23.96875 28.515625 "/></g></g></g><g fill="#000000" fill-opacity="1"><g transform="translate(302.099677, 124.393305)"><g><path d="M 1.921875 4.8125 L 46.359375 -12.921875 L 52.03125 1.3125 C 53.925781 6.050781 54.609375 10.523438 54.078125 14.734375 C 53.546875 18.941406 51.988281 22.664062 49.40625 25.90625 C 46.820312 29.144531 43.375 31.628906 39.0625 33.359375 C 34.75 35.078125 30.539062 35.648438 26.4375 35.078125 C 22.332031 34.503906 18.640625 32.875 15.359375 30.1875 C 12.078125 27.5 9.488281 23.785156 7.59375 19.046875 Z M 9.765625 8.75 L 13.03125 16.953125 C 14.34375 20.253906 16.1875 22.910156 18.5625 24.921875 C 20.9375 26.941406 23.675781 28.191406 26.78125 28.671875 C 29.894531 29.160156 33.1875 28.710938 36.65625 27.328125 C 40.164062 25.921875 42.867188 23.976562 44.765625 21.5 C 46.671875 19.019531 47.789062 16.226562 48.125 13.125 C 48.457031 10.03125 47.96875 6.832031 46.65625 3.53125 L 43.390625 -4.671875 Z M 9.765625 8.75 "/></g></g></g><g clip-path="url(#5fdadfda1a)"><path fill="#e482b1" d="M 156.152344 129.363281 C 149.207031 139.972656 135.660156 153.664062 122.464844 162.902344 C 100.582031 178.648438 100.234375 178.648438 108.222656 183.78125 C 123.503906 193.363281 155.113281 224.851562 161.710938 236.828125 C 165.183594 243.332031 169.003906 248.808594 170.046875 248.808594 C 171.089844 248.808594 174.910156 243.332031 178.382812 236.828125 C 184.980469 224.851562 216.933594 193.363281 232.566406 183.4375 L 240.902344 177.960938 L 232.566406 173.511719 C 215.546875 164.613281 194.707031 145.449219 183.9375 128.679688 C 177.6875 119.4375 171.78125 111.90625 170.394531 111.90625 C 169.003906 111.90625 162.40625 119.78125 156.152344 129.363281 Z M 156.152344 129.363281 " fill-opacity="1" fill-rule="nonzero"/></g><g clip-path="url(#9fb537d369)"><path fill="#0e9d62" d="M 186.699219 129.363281 C 179.753906 139.972656 166.207031 153.664062 153.007812 162.902344 C 131.125 178.648438 130.78125 178.648438 138.769531 183.78125 C 154.050781 193.363281 185.65625 224.851562 192.257812 236.828125 C 195.730469 243.332031 199.550781 248.808594 200.589844 248.808594 C 201.632812 248.808594 205.453125 243.332031 208.925781 236.828125 C 215.527344 224.851562 247.480469 193.363281 263.109375 183.4375 L 271.445312 177.960938 L 263.109375 173.511719 C 246.089844 164.613281 225.25 145.449219 214.484375 128.679688 C 208.234375 119.4375 202.328125 111.90625 200.9375 111.90625 C 199.550781 111.90625 192.949219 119.78125 186.699219 129.363281 Z M 186.699219 129.363281 " fill-opacity="1" fill-rule="nonzero"/></g><g fill="#000000" fill-opacity="1"><g transform="translate(23.021986, 187.747668)"><g><path d="M 35.046875 0.84375 L 36.9375 14.625 L 26.859375 16.015625 C 30.722656 17.003906 33.632812 18.226562 35.59375 19.6875 C 37.550781 21.144531 38.644531 22.726562 38.875 24.4375 C 39.007812 25.40625 38.863281 26.203125 38.4375 26.828125 C 38.019531 27.460938 37.5 27.820312 36.875 27.90625 C 36.25 28 35.742188 27.984375 35.359375 27.859375 C 34.972656 27.742188 34.632812 27.566406 34.34375 27.328125 C 33.71875 26.828125 33.367188 26.316406 33.296875 25.796875 C 33.191406 24.992188 33.203125 24.382812 33.328125 23.96875 C 33.535156 23.269531 33.601562 22.664062 33.53125 22.15625 C 33.457031 21.644531 32.953125 21.046875 32.015625 20.359375 C 31.078125 19.671875 29.835938 19.070312 28.296875 18.5625 C 24.492188 17.257812 20.515625 16.890625 16.359375 17.453125 L 2.65625 19.34375 L 0.765625 5.5625 Z M 35.046875 0.84375 "/></g></g></g><g fill="#000000" fill-opacity="1"><g transform="translate(27.711529, 222.987635)"><g><path d="M 20.75 30.078125 C 21.0625 30.859375 20.851562 31.394531 20.125 31.6875 C 19.582031 31.90625 18.804688 31.8125 17.796875 31.40625 C 13.265625 29.570312 9.878906 25.90625 7.640625 20.40625 C 5.628906 15.457031 5.425781 10.6875 7.03125 6.09375 C 8.695312 1.332031 11.898438 -2.007812 16.640625 -3.9375 C 21.484375 -5.90625 26.113281 -5.945312 30.53125 -4.0625 C 35.207031 -2.070312 38.675781 1.691406 40.9375 7.234375 C 42.738281 11.679688 42.90625 15.960938 41.4375 20.078125 C 39.863281 24.523438 36.71875 27.707031 32 29.625 C 31.320312 29.90625 30.59375 30.179688 29.8125 30.453125 L 21.75 10.640625 L 8.859375 15.875 C 9.140625 17.34375 9.628906 18.925781 10.328125 20.625 C 11.796875 24.238281 14.234375 26.828125 17.640625 28.390625 C 18.367188 28.703125 18.929688 28.910156 19.328125 29.015625 C 20.078125 29.234375 20.550781 29.585938 20.75 30.078125 Z M 40.015625 12.875 C 39.867188 11.425781 39.460938 9.878906 38.796875 8.234375 C 38.128906 6.597656 37.488281 5.347656 36.875 4.484375 L 23.9375 9.75 L 27.328125 18.046875 Z M 40.015625 12.875 "/></g></g></g><g fill="#000000" fill-opacity="1"><g transform="translate(45.982997, 266.572599)"><g><path d="M 18.921875 19.765625 C 15.753906 18.796875 13.101562 17.003906 10.96875 14.390625 C 8.144531 10.929688 6.742188 7.445312 6.765625 3.9375 C 6.773438 0.289062 8.367188 -2.828125 11.546875 -5.421875 C 14.359375 -7.722656 17.554688 -8.53125 21.140625 -7.84375 C 24.753906 -7.132812 28.035156 -4.984375 30.984375 -1.390625 C 32.953125 1.023438 34.332031 3.664062 35.125 6.53125 L 42.03125 0.875 C 41.21875 -1.007812 40.332031 -2.53125 39.375 -3.6875 C 38.425781 -4.851562 37.570312 -5.796875 36.8125 -6.515625 C 36.0625 -7.234375 35.296875 -7.867188 34.515625 -8.421875 C 32.804688 -9.617188 31.253906 -10.316406 29.859375 -10.515625 C 29.046875 -10.628906 28.484375 -10.878906 28.171875 -11.265625 C 27.859375 -11.648438 27.710938 -12.023438 27.734375 -12.390625 C 27.765625 -12.753906 27.894531 -13.03125 28.125 -13.21875 C 28.363281 -13.40625 28.609375 -13.53125 28.859375 -13.59375 C 29.117188 -13.664062 29.453125 -13.671875 29.859375 -13.609375 C 30.691406 -13.460938 31.804688 -12.984375 33.203125 -12.171875 C 36.097656 -10.492188 38.546875 -8.429688 40.546875 -5.984375 C 46.617188 1.441406 48.722656 7.628906 46.859375 12.578125 C 46.035156 14.765625 44.335938 16.90625 41.765625 19 L 26.046875 31.859375 L 17.265625 21.125 Z M 33.171875 8.125 C 32.472656 5.1875 31.269531 2.671875 29.5625 0.578125 C 29.28125 0.242188 28.992188 -0.0507812 28.703125 -0.3125 L 12.75 12.734375 C 12.789062 12.828125 12.851562 12.921875 12.9375 13.015625 C 13.019531 13.117188 13.101562 13.21875 13.1875 13.3125 C 15.0625 15.613281 17.691406 17.179688 21.078125 18.015625 Z M 33.171875 8.125 "/></g></g></g><g fill="#000000" fill-opacity="1"><g transform="translate(78.923936, 305.794396)"><g><path d="M 26.40625 14.640625 C 23.269531 14.523438 20.429688 13.660156 17.890625 12.046875 C 15.347656 10.441406 13.351562 8.648438 11.90625 6.671875 C 10.457031 4.703125 9.476562 2.609375 8.96875 0.390625 C 7.90625 -4.253906 8.8125 -8.835938 11.6875 -13.359375 C 14.34375 -17.554688 17.960938 -20.15625 22.546875 -21.15625 C 27.398438 -22.21875 32.234375 -21.222656 37.046875 -18.171875 C 39.597656 -16.554688 41.660156 -14.472656 43.234375 -11.921875 L 50 -22.578125 L 61.28125 -15.4375 L 36.734375 23.28125 L 25.453125 16.140625 Z M 35.265625 -16.53125 C 34.691406 -16.894531 34.125 -17.195312 33.5625 -17.4375 L 17.109375 8.515625 C 17.703125 9.046875 18.382812 9.550781 19.15625 10.03125 C 21.6875 11.632812 24.613281 12.363281 27.9375 12.21875 L 41.6875 -9.46875 C 40.125 -12.445312 37.984375 -14.800781 35.265625 -16.53125 Z M 35.265625 -16.53125 "/></g></g></g><g fill="#000000" fill-opacity="1"><g transform="translate(124.296967, 332.199814)"><g><path d="M 24.328125 -34.40625 C 22.210938 -35.101562 20.710938 -36.117188 19.828125 -37.453125 C 18.941406 -38.785156 18.753906 -40.222656 19.265625 -41.765625 C 19.679688 -43.054688 20.703125 -43.953125 22.328125 -44.453125 C 24.046875 -44.972656 25.679688 -44.976562 27.234375 -44.46875 C 28.796875 -43.957031 29.953125 -43.40625 30.703125 -42.8125 C 31.453125 -42.226562 32.039062 -41.59375 32.46875 -40.90625 C 33.34375 -39.507812 33.5625 -38.144531 33.125 -36.8125 C 32.6875 -35.476562 31.640625 -34.570312 29.984375 -34.09375 C 28.328125 -33.613281 26.441406 -33.71875 24.328125 -34.40625 Z M 16.09375 -31.140625 L 29.328125 -26.8125 L 18.5625 6.078125 L 5.328125 1.75 Z M 16.09375 -31.140625 "/></g></g></g><g fill="#000000" fill-opacity="1"><g transform="translate(151.449106, 342.094801)"><g><path d="M 31.625 -29 C 31.101562 -29.375 30.53125 -29.582031 29.90625 -29.625 C 29.28125 -29.675781 28.625 -29.578125 27.9375 -29.328125 C 27.25 -29.078125 26.519531 -28.722656 25.75 -28.265625 C 24.144531 -27.265625 22.632812 -25.890625 21.21875 -24.140625 L 19.484375 1.328125 L 5.59375 0.375 L 7.9375 -34.15625 L 21.828125 -33.203125 L 21.453125 -27.671875 C 25.410156 -31.492188 29.71875 -33.25 34.375 -32.9375 C 41.988281 -32.425781 45.546875 -28.484375 45.046875 -21.109375 L 43.421875 2.9375 L 29.515625 2 Z M 31.625 -29 "/></g></g></g><g fill="#000000" fill-opacity="1"><g transform="translate(204.875928, 344.24375)"><g><path d="M 9.9375 -13.15625 C 8.195312 -12.15625 7.40625 -11.320312 7.5625 -10.65625 C 7.71875 -9.988281 8.367188 -9.664062 9.515625 -9.6875 C 11.765625 -9.664062 14.757812 -10.039062 18.5 -10.8125 C 22.25 -11.59375 25.117188 -11.960938 27.109375 -11.921875 C 29.097656 -11.890625 30.738281 -11.644531 32.03125 -11.1875 C 34.351562 -10.332031 35.769531 -8.8125 36.28125 -6.625 C 36.914062 -3.882812 36.070312 -1.347656 33.75 0.984375 C 31.1875 3.554688 27.171875 5.476562 21.703125 6.75 C 16.046875 8.070312 11.175781 8.316406 7.09375 7.484375 C 5.625 7.148438 4.796875 6.570312 4.609375 5.75 C 4.523438 5.394531 4.585938 5.078125 4.796875 4.796875 C 5.003906 4.523438 5.257812 4.359375 5.5625 4.296875 C 5.914062 4.210938 6.351562 4.25 6.875 4.40625 C 8.101562 4.769531 9.21875 5.050781 10.21875 5.25 C 11.226562 5.445312 12.753906 5.507812 14.796875 5.4375 C 16.847656 5.363281 18.785156 5.113281 20.609375 4.6875 C 22.429688 4.257812 23.894531 3.832031 25 3.40625 C 26.113281 2.976562 27.019531 2.570312 27.71875 2.1875 C 29.125 1.394531 29.757812 0.722656 29.625 0.171875 C 29.507812 -0.328125 29.273438 -0.65625 28.921875 -0.8125 C 28.566406 -0.976562 28.132812 -1.09375 27.625 -1.15625 C 27.113281 -1.226562 26.414062 -1.238281 25.53125 -1.1875 C 23.738281 -1.082031 21.34375 -0.757812 18.34375 -0.21875 C 15.34375 0.320312 12.929688 0.578125 11.109375 0.546875 C 9.285156 0.515625 7.742188 0.296875 6.484375 -0.109375 C 4.066406 -0.898438 2.601562 -2.390625 2.09375 -4.578125 C 1.351562 -7.734375 2.894531 -10.785156 6.71875 -13.734375 C 4.507812 -14.359375 2.617188 -15.410156 1.046875 -16.890625 C -0.515625 -18.378906 -1.535156 -20.148438 -2.015625 -22.203125 C -2.492188 -24.253906 -2.523438 -26.117188 -2.109375 -27.796875 C -1.691406 -29.484375 -0.921875 -31.035156 0.203125 -32.453125 C 2.597656 -35.492188 6.109375 -37.550781 10.734375 -38.625 C 12.796875 -39.101562 14.9375 -39.273438 17.15625 -39.140625 C 19.46875 -42.710938 21.898438 -44.796875 24.453125 -45.390625 C 25.515625 -45.640625 26.347656 -45.644531 26.953125 -45.40625 C 27.554688 -45.164062 27.921875 -44.78125 28.046875 -44.25 C 28.179688 -43.695312 28.09375 -43.253906 27.78125 -42.921875 C 27.476562 -42.597656 27.164062 -42.398438 26.84375 -42.328125 C 26.28125 -42.191406 25.789062 -42.140625 25.375 -42.171875 C 24.726562 -42.242188 24.101562 -42.207031 23.5 -42.0625 C 22.363281 -41.800781 21.113281 -40.679688 19.75 -38.703125 C 23.570312 -37.828125 26.378906 -35.9375 28.171875 -33.03125 C 28.753906 -32.050781 29.222656 -30.796875 29.578125 -29.265625 C 29.929688 -27.734375 29.835938 -26.109375 29.296875 -24.390625 C 28.765625 -22.679688 27.894531 -21.109375 26.6875 -19.671875 C 24.15625 -16.679688 20.816406 -14.703125 16.671875 -13.734375 C 14.472656 -13.179688 12.226562 -12.988281 9.9375 -13.15625 Z M 16.234375 -16.0625 C 19.640625 -16.894531 22.382812 -18.410156 24.46875 -20.609375 C 26.875 -23.128906 27.707031 -25.96875 26.96875 -29.125 C 26.238281 -32.28125 24.25 -34.492188 21 -35.765625 C 18.019531 -36.941406 14.847656 -37.171875 11.484375 -36.453125 Z M 16.234375 -16.0625 "/></g></g></g><g fill="#000000" fill-opacity="1"><g transform="translate(245.074194, 333.477002)"><g/></g></g><g fill="#000000" fill-opacity="1"><g transform="translate(261.611708, 327.026887)"><g><path d="M 14.3125 -12 C 15.28125 -12.394531 16.191406 -12.875 17.046875 -13.4375 C 17.898438 -14.007812 18.679688 -14.628906 19.390625 -15.296875 C 20.097656 -15.960938 20.726562 -16.660156 21.28125 -17.390625 C 22.457031 -18.941406 23.234375 -20.445312 23.609375 -21.90625 C 23.898438 -22.914062 24.195312 -23.519531 24.5 -23.71875 C 25.1875 -24.175781 25.734375 -24.097656 26.140625 -23.484375 C 26.546875 -22.867188 26.472656 -21.769531 25.921875 -20.1875 C 24.472656 -16.75 21.929688 -13.820312 18.296875 -11.40625 C 13.566406 -8.269531 8.800781 -7.148438 4 -8.046875 C -0.726562 -8.960938 -4.582031 -11.660156 -7.5625 -16.140625 C -10.382812 -20.390625 -11.191406 -24.90625 -9.984375 -29.6875 C -8.773438 -34.425781 -5.878906 -38.316406 -1.296875 -41.359375 C 1.304688 -43.085938 4.164062 -44.210938 7.28125 -44.734375 C 9.65625 -45.160156 11.125 -44.953125 11.6875 -44.109375 C 11.925781 -43.742188 12.003906 -43.398438 11.921875 -43.078125 C 11.835938 -42.753906 11.671875 -42.507812 11.421875 -42.34375 C 11.035156 -42.09375 10.40625 -41.976562 9.53125 -42 C 7.632812 -42.332031 5.382812 -41.960938 2.78125 -40.890625 C 1.832031 -40.503906 0.863281 -39.984375 -0.125 -39.328125 C -1.113281 -38.671875 -1.914062 -38.023438 -2.53125 -37.390625 Z M 14.3125 -12 "/></g></g></g><g fill="#000000" fill-opacity="1"><g transform="translate(294.349286, 304.135569)"><g><path d="M -28.75 -36.140625 L -19 -46.0625 L 13.6875 -13.921875 L 3.9375 -4 Z M -28.75 -36.140625 "/></g></g></g><g fill="#000000" fill-opacity="1"><g transform="translate(315.27161, 284.209562)"><g><path d="M 9.078125 -14.328125 C 5.253906 -7.773438 0.144531 -6.367188 -6.25 -10.109375 L -27.0625 -22.265625 L -20.0625 -34.234375 L 7.3125 -18.234375 C 7.519531 -18.367188 7.707031 -18.578125 7.875 -18.859375 L 8.421875 -19.796875 C 9.285156 -21.273438 9.304688 -23.632812 8.484375 -26.875 C 8.234375 -27.84375 7.90625 -28.804688 7.5 -29.765625 L -15 -42.90625 L -7.96875 -54.9375 L 21.90625 -37.484375 L 14.875 -25.453125 L 10.578125 -27.96875 C 12.015625 -23.039062 11.515625 -18.492188 9.078125 -14.328125 Z M 9.078125 -14.328125 "/></g></g></g><g fill="#000000" fill-opacity="1"><g transform="translate(341.804012, 237.025642)"><g><path d="M 6 -26.984375 C 5.414062 -24.035156 4.1875 -21.320312 2.3125 -18.84375 L 3.703125 -18.5625 L 1.09375 -5.5 L -43.859375 -14.484375 L -41.25 -27.546875 L -28.609375 -25.015625 C -29.523438 -27.984375 -29.6875 -30.941406 -29.09375 -33.890625 C -28.507812 -36.835938 -27.5625 -39.335938 -26.25 -41.390625 C -24.945312 -43.441406 -23.378906 -45.113281 -21.546875 -46.40625 C -17.671875 -49.039062 -13.21875 -49.851562 -8.1875 -48.84375 C -3.125 -47.832031 0.753906 -45.375 3.453125 -41.46875 C 6.273438 -37.414062 7.125 -32.585938 6 -26.984375 Z M -26.796875 -33.4375 C -27.421875 -30.300781 -27.117188 -27.3125 -25.890625 -24.46875 L -0.40625 -19.375 C 1.71875 -21.832031 3.128906 -24.789062 3.828125 -28.25 L 3.984375 -29.078125 C 4.035156 -29.328125 4.0625 -29.570312 4.0625 -29.8125 L -26.125 -35.84375 C -26.40625 -35.0625 -26.628906 -34.257812 -26.796875 -33.4375 Z M -26.796875 -33.4375 "/></g></g></g></svg>